<svg viewBox="0 0 533.5 544.3" xmlns="http://www.w3.org/2000/svg" width="20" height="20"><path fill="#4285F4" d="M533.5 278.4c0-17.3-1.6-34.2-4.6-50.3H272v95.1h146.9c-6.4 34.5-25.9 63.7-55.4 83.3v69.3h89.4c52.2-48 82.6-118.8 82.6-197.4z"/><path fill="#34A853" d="M272 544.3c73.4 0 135.1-24.5 180.1-66.5l-89.4-69.3c-24.9 16.8-56.2 26.6-90.7 26.6-69.7 0-128.9-47-150-110.1H30.9v69.4C76 485.9 167.6 544.3 272 544.3z"/><path fill="#FBBC05" d="M122 329.1c-10.2-30.9-10.2-64 0-95L30.9 164.7C-18.3 225.8-18.3 318.4 30.9 379.5L122 329.1z"/><path fill="#EA4335" d="M272 110.1c39.9 0 75.6 13.7 103.8 40.4l77.8-77.8C410.5 24 352.1 0 272 0 167.6 0 76 58.4 30.9 164.7l91.1 69.4C143.1 157.1 202.3 110.1 272 110.1z"/></svg>